<svg xmlns="http://www.w3.org/2000/svg" width="599.46" height="588.718" viewBox="0 0 158.607 155.765" xmlns:v="https://vecta.io/nano"><path d="M83.899 14.007s-7.061 6.911-7.463 16.302c-.178 4.172-1.034 5.186-1.021 5.186l9.855.003s1.071-10.109 7.302-15.012c5.693-4.479 22.295-19.38 23.223-20.334S91.273 2.601 83.899 14.007z" fill="#00a905"/><path d="M75.616 35.485S55.42 8.71 23.499 29.11C-3.615 49.481.182 77.977.182 77.977c-.188 38.955 35.77 64.197 35.77 64.197s15.044 13.141 42.503 13.591c33.506-.03 53.088-20.687 53.088-20.687s27.003-22.98 27.064-63.602c.13-28.864-23.889-43.113-23.889-43.113-35.961-19.361-49.531 7.122-49.531 7.122s7.961 1.104 16.825 7.046c5.967 4.328 9.906 11.067 9.906 11.067s6.609 2.418 6.483 7.356c-.092 4.414-3.259 5.096-3.259 5.096s-4.777 2.653-7.876-1.912c-2.859-4.51-2.714-7.516-2.714-7.516s-2.511-6.922-8.163-10.937c-7.878-5.539-16.085-5.402-16.085-5.402s-15.814.069-22.872 10.944l-4.073 6.933s.33 1.916-2.198 5.74c-2.196 3.393-4.8 2.785-4.8 2.785s-5.732-.024-5.603-5.96c.013-5.773 5.494-6.482 5.494-6.482l9.739-10.368c7.422-7.469 19.625-8.39 19.625-8.39z" fill="#8adb8e"/><ellipse ry="12.054" rx="8.551" cy="-185.593" cx="-217.003" transform="matrix(-.992951 .118523 .378102 -.925764 -26.477 -23.339)" fill="#fff"/></svg>